<svg width="90" height="91" viewBox="0 0 90 91" fill="none" xmlns="http://www.w3.org/2000/svg">
<path d="M42.1519 64.4584C41.5894 55.9707 38.5184 48.7008 32.9391 42.6487C27.3597 36.5966 20.5194 33.1815 12.4181 32.4036C11.5819 32.3259 10.8656 32.0036 10.2694 31.4367C9.67313 30.8692 9.375 30.1839 9.375 29.3807C9.375 28.5769 9.66594 27.9029 10.2478 27.3588C10.8297 26.8141 11.5316 26.5929 12.3534 26.6952C19.7622 27.3171 26.3909 29.9081 32.2397 34.4682C38.0878 39.0276 42.3413 44.8586 45 51.961C47.1587 46.4043 50.2656 41.5175 54.3206 37.3005C58.3762 33.0836 62.9784 29.4973 68.1272 26.5417H55.8534C55.0566 26.5417 54.3884 26.269 53.8491 25.7236C53.3103 25.1783 53.0409 24.5027 53.0409 23.697C53.0409 22.8906 53.3103 22.2154 53.8491 21.6713C54.3884 21.1266 55.0566 20.8542 55.8534 20.8542H73.485C74.4456 20.8542 75.2506 21.1828 75.9 21.84C76.55 22.4966 76.875 23.3106 76.875 24.2819V42.1093C76.875 42.9151 76.6053 43.5906 76.0659 44.136C75.5266 44.6807 74.8584 44.9531 74.0616 44.9531C73.2641 44.9531 72.5962 44.6807 72.0581 44.136C71.5194 43.5906 71.25 42.9151 71.25 42.1093V31.2737C64.9569 34.8758 59.5963 39.5073 55.1681 45.1683C50.74 50.8292 48.2759 57.2592 47.7759 64.4584H52.2113C53.0081 64.4584 53.6763 64.731 54.2156 65.2764C54.7544 65.8218 55.0238 66.4973 55.0238 67.3031C55.0238 68.1094 54.7544 68.7846 54.2156 69.3288C53.6763 69.8735 53.0081 70.1459 52.2113 70.1459H37.68C36.8831 70.1459 36.2153 69.8732 35.6766 69.3278C35.1372 68.7824 34.8675 68.1069 34.8675 67.3012C34.8675 66.4948 35.1372 65.8196 35.6766 65.2755C36.2153 64.7307 36.8831 64.4584 37.68 64.4584H42.1519Z" fill="#F59E0B"/>
</svg>
