<svg width="67" height="67" viewBox="0 0 67 67" fill="none" xmlns="http://www.w3.org/2000/svg">
<path d="M38.9668 56.3505H22.7172C20.9594 56.3505 19.4614 55.7314 18.2233 54.4933C16.9852 53.2557 16.3661 51.7577 16.3661 49.9994V22.5839C16.3661 21.7217 16.6616 20.9991 17.2525 20.4161C17.8429 19.8331 18.5671 19.5416 19.4251 19.5416C20.2826 19.5416 21.004 19.8331 21.5894 20.4161C22.1742 20.9991 22.4666 21.7217 22.4666 22.5839V50.25H38.9668C39.8285 50.25 40.5508 50.5415 41.1338 51.1245C41.7168 51.7075 42.0083 52.43 42.0083 53.2922C42.0083 54.1497 41.7168 54.8739 41.1338 55.4648C40.5508 56.0553 39.8285 56.3505 38.9668 56.3505ZM32.5466 16.75C30.9386 16.75 29.5631 16.1789 28.4199 15.0366C27.2762 13.8939 26.7044 12.5204 26.7044 10.9161C26.7044 9.30717 27.2755 7.92995 28.4178 6.78443C29.5605 5.63892 30.934 5.06616 32.5383 5.06616C34.1514 5.06616 35.527 5.63822 36.6651 6.78234C37.8027 7.92645 38.3715 9.30205 38.3715 10.9091C38.3715 12.5162 37.8027 13.8913 36.6651 15.0345C35.527 16.1782 34.1542 16.75 32.5466 16.75ZM44.8 58.4917V47.4583H30.8416C29.3062 47.4583 27.9918 46.9116 26.8984 45.8182C25.805 44.7248 25.2583 43.4104 25.2583 41.875V26.8209C25.2583 24.7891 25.9637 23.068 27.3744 21.6577C28.7846 20.247 30.5059 19.5416 32.5383 19.5416C34.5701 19.5416 36.2914 20.247 37.7022 21.6577C39.1124 23.068 39.8175 24.7891 39.8175 26.8209V38.8328H45.0505C46.5859 38.8328 47.9004 39.3795 48.9938 40.4729C50.0872 41.5663 50.6339 42.8807 50.6339 44.4161V58.5084C50.6339 59.3324 50.3552 60.0231 49.7978 60.5805C49.2404 61.138 48.5494 61.4167 47.7249 61.4167C46.9009 61.4167 46.2074 61.1363 45.6445 60.5757C45.0815 60.015 44.8 59.3203 44.8 58.4917Z" fill="black"/>
</svg>
