<svg width="34" height="34" viewBox="0 0 34 34" fill="none" xmlns="http://www.w3.org/2000/svg">
<path d="M13.8465 4.24998C13.3649 4.24998 12.9583 4.0808 12.6268 3.74246C12.2953 3.40434 12.1295 2.99457 12.1295 2.51314C12.1295 2.03148 12.2986 1.62489 12.6367 1.29339C12.975 0.961894 13.3849 0.796143 13.8664 0.796143H20.1535C20.6352 0.796143 21.0418 0.961894 21.3733 1.29339C21.7048 1.62489 21.8705 2.03148 21.8705 2.51314C21.8705 2.99457 21.7048 3.40434 21.3733 3.74246C21.0418 4.0808 20.6352 4.24998 20.1535 4.24998H13.8465ZM14.1667 20.4754L13.0288 18.2197C12.884 17.9199 12.677 17.6917 12.4075 17.5351C12.1379 17.3786 11.8465 17.3003 11.5335 17.3003H3.68018C4.10116 13.9659 5.56588 11.1733 8.07432 8.9225C10.5828 6.67189 13.558 5.54658 17 5.54658C18.4906 5.54658 19.9355 5.78269 21.3347 6.25491C22.7339 6.72714 24.0305 7.41847 25.2245 8.32891L26.236 7.31741C26.5758 6.97765 26.983 6.80517 27.4579 6.79998C27.9327 6.79478 28.34 6.96726 28.6797 7.31741C29.0197 7.65718 29.1897 8.06447 29.1897 8.53929C29.1897 9.01411 29.0197 9.4214 28.6797 9.76116L27.6682 10.7727C28.4103 11.7511 29.0024 12.786 29.4444 13.8773C29.8864 14.9684 30.1848 16.1094 30.3397 17.3003H23.5121L21.1484 12.5531C20.8485 11.9297 20.3501 11.6181 19.6531 11.6181C18.9561 11.6181 18.4511 11.9297 18.138 12.5531L14.1667 20.4754ZM17 32.3878C13.558 32.3878 10.5828 31.2658 8.07432 29.0218C5.56588 26.7776 4.10116 23.9884 3.68018 20.6543H10.488L12.8517 25.4015C13.1648 26.0381 13.6665 26.3496 14.3569 26.3362C15.0473 26.3227 15.549 26.0044 15.8621 25.3813L19.8334 17.4788L20.9713 19.7348C21.116 20.0213 21.3231 20.246 21.5925 20.4092C21.8621 20.5726 22.1535 20.6543 22.4666 20.6543H30.3397C29.919 23.9884 28.4535 26.7776 25.9434 29.0218C23.4336 31.2658 20.4524 32.3878 17 32.3878Z" fill="black"/>
</svg>
