<svg width="48" height="54" viewBox="0 0 48 54" fill="none" xmlns="http://www.w3.org/2000/svg">
<path d="M21.9 25.1438L20.45 23.5125C20.05 23.1 19.5833 22.8938 19.05 22.8938C18.5167 22.8938 18.05 23.1188 17.65 23.5688C17.25 24.0188 17.05 24.5438 17.05 25.1438C17.05 25.7438 17.25 26.2688 17.65 26.7188L20.45 29.925C20.85 30.375 21.325 30.6 21.875 30.6C22.425 30.6 22.9 30.375 23.3 29.925L30.35 21.9375C30.75 21.4875 30.95 20.9625 30.95 20.3625C30.95 19.7625 30.75 19.2375 30.35 18.7875C29.95 18.3375 29.4833 18.1125 28.95 18.1125C28.4167 18.1125 27.95 18.3375 27.55 18.7875L21.9 25.1438ZM24 40.5L15.6 44.55C14.2667 45.1875 13 45.0656 11.8 44.1844C10.6 43.3031 10 42.0563 10 40.4438V11.25C10 10.0125 10.3917 8.95312 11.175 8.07188C11.9583 7.19063 12.9 6.75 14 6.75H34C35.1 6.75 36.0417 7.19063 36.825 8.07188C37.6083 8.95312 38 10.0125 38 11.25V40.4438C38 42.0563 37.4 43.3031 36.2 44.1844C35 45.0656 33.7333 45.1875 32.4 44.55L24 40.5Z" fill="black"/>
</svg>
