<svg width="93" height="105" viewBox="0 0 93 105" fill="none" xmlns="http://www.w3.org/2000/svg">
<path d="M2.964 28V0.699998H12.207C14.079 0.699998 15.717 0.985998 17.121 1.558C18.525 2.13 19.617 3.001 20.397 4.171C21.177 5.315 21.567 6.745 21.567 8.461C21.567 9.527 21.294 10.515 20.748 11.425C20.228 12.309 19.487 13.076 18.525 13.726C19.799 14.376 20.774 15.247 21.45 16.339C22.152 17.405 22.503 18.692 22.503 20.2C22.503 21.864 22.126 23.281 21.372 24.451C20.618 25.621 19.565 26.505 18.213 27.103C16.861 27.701 15.275 28 13.455 28H2.964ZM8.19 23.281H12.948C14.222 23.281 15.223 22.969 15.951 22.345C16.679 21.695 17.043 20.837 17.043 19.771C17.043 18.653 16.64 17.782 15.834 17.158C15.028 16.508 13.923 16.183 12.519 16.183H8.19V23.281ZM8.19 11.815H12.324C13.494 11.815 14.417 11.516 15.093 10.918C15.769 10.32 16.107 9.475 16.107 8.383C16.107 7.291 15.73 6.446 14.976 5.848C14.222 5.25 13.195 4.951 11.895 4.951H8.19V11.815ZM36.0479 28.468C34.0719 28.468 32.3039 28.039 30.7439 27.181C29.2099 26.297 28.0009 25.088 27.1169 23.554C26.2589 22.02 25.8299 20.252 25.8299 18.25C25.8299 16.248 26.2589 14.48 27.1169 12.946C27.9749 11.412 29.1709 10.216 30.7049 9.358C32.2389 8.474 33.9939 8.032 35.9699 8.032C37.9719 8.032 39.7399 8.474 41.2739 9.358C42.8079 10.216 44.0039 11.412 44.8619 12.946C45.7199 14.48 46.1489 16.248 46.1489 18.25C46.1489 20.252 45.7199 22.02 44.8619 23.554C44.0039 25.088 42.8079 26.297 41.2739 27.181C39.7659 28.039 38.0239 28.468 36.0479 28.468ZM36.0479 23.71C37.0099 23.71 37.8549 23.476 38.5829 23.008C39.3109 22.54 39.8699 21.903 40.2599 21.097C40.6759 20.265 40.8839 19.316 40.8839 18.25C40.8839 17.184 40.6759 16.248 40.2599 15.442C39.8439 14.61 39.2589 13.96 38.5049 13.492C37.7769 13.024 36.9319 12.79 35.9699 12.79C35.0339 12.79 34.1889 13.024 33.4349 13.492C32.7069 13.96 32.1349 14.61 31.7189 15.442C31.3029 16.248 31.0949 17.184 31.0949 18.25C31.0949 19.316 31.3029 20.265 31.7189 21.097C32.1349 21.903 32.7199 22.54 33.4739 23.008C34.2279 23.476 35.0859 23.71 36.0479 23.71ZM59.489 28.468C57.513 28.468 55.745 28.039 54.185 27.181C52.651 26.297 51.442 25.088 50.558 23.554C49.7 22.02 49.271 20.252 49.271 18.25C49.271 16.248 49.7 14.48 50.558 12.946C51.416 11.412 52.612 10.216 54.146 9.358C55.68 8.474 57.435 8.032 59.411 8.032C61.413 8.032 63.181 8.474 64.715 9.358C66.249 10.216 67.445 11.412 68.303 12.946C69.161 14.48 69.59 16.248 69.59 18.25C69.59 20.252 69.161 22.02 68.303 23.554C67.445 25.088 66.249 26.297 64.715 27.181C63.207 28.039 61.465 28.468 59.489 28.468ZM59.489 23.71C60.451 23.71 61.296 23.476 62.024 23.008C62.752 22.54 63.311 21.903 63.701 21.097C64.117 20.265 64.325 19.316 64.325 18.25C64.325 17.184 64.117 16.248 63.701 15.442C63.285 14.61 62.7 13.96 61.946 13.492C61.218 13.024 60.373 12.79 59.411 12.79C58.475 12.79 57.63 13.024 56.876 13.492C56.148 13.96 55.576 14.61 55.16 15.442C54.744 16.248 54.536 17.184 54.536 18.25C54.536 19.316 54.744 20.265 55.16 21.097C55.576 21.903 56.161 22.54 56.915 23.008C57.669 23.476 58.527 23.71 59.489 23.71ZM78.6791 23.047L75.5981 19.498L85.5821 8.5H91.7051L78.6791 23.047ZM73.7651 28V0.699998H78.9131V28H73.7651ZM86.2451 28L79.7711 18.562L83.1251 15.013L92.2901 28H86.2451ZM15.132 54.729L10.101 53.442L18.876 38.7H24.96L15.132 54.729ZM9.945 66V52.896H15.288V66H9.945ZM10.101 54.729L0.273 38.7H6.357L15.132 53.442L10.101 54.729ZM34.0674 66.468C32.0914 66.468 30.3234 66.039 28.7634 65.181C27.2294 64.297 26.0204 63.088 25.1364 61.554C24.2784 60.02 23.8494 58.252 23.8494 56.25C23.8494 54.248 24.2784 52.48 25.1364 50.946C25.9944 49.412 27.1904 48.216 28.7244 47.358C30.2584 46.474 32.0134 46.032 33.9894 46.032C35.9914 46.032 37.7594 46.474 39.2934 47.358C40.8274 48.216 42.0234 49.412 42.8814 50.946C43.7394 52.48 44.1684 54.248 44.1684 56.25C44.1684 58.252 43.7394 60.02 42.8814 61.554C42.0234 63.088 40.8274 64.297 39.2934 65.181C37.7854 66.039 36.0434 66.468 34.0674 66.468ZM34.0674 61.71C35.0294 61.71 35.8744 61.476 36.6024 61.008C37.3304 60.54 37.8894 59.903 38.2794 59.097C38.6954 58.265 38.9034 57.316 38.9034 56.25C38.9034 55.184 38.6954 54.248 38.2794 53.442C37.8634 52.61 37.2784 51.96 36.5244 51.492C35.7964 51.024 34.9514 50.79 33.9894 50.79C33.0534 50.79 32.2084 51.024 31.4544 51.492C30.7264 51.96 30.1544 52.61 29.7384 53.442C29.3224 54.248 29.1144 55.184 29.1144 56.25C29.1144 57.316 29.3224 58.265 29.7384 59.097C30.1544 59.903 30.7394 60.54 31.4934 61.008C32.2474 61.476 33.1054 61.71 34.0674 61.71ZM61.2135 66L60.9015 62.412V46.5H66.0495V66H61.2135ZM47.9925 56.484V46.5H53.1405V56.484H47.9925ZM53.1405 56.484C53.1405 57.784 53.2835 58.811 53.5695 59.565C53.8815 60.293 54.3105 60.826 54.8565 61.164C55.4285 61.476 56.0655 61.632 56.7675 61.632C58.1195 61.658 59.1465 61.255 59.8485 60.423C60.5505 59.565 60.9015 58.33 60.9015 56.718H62.6565C62.6565 58.798 62.3445 60.566 61.7205 62.022C61.0965 63.452 60.2385 64.557 59.1465 65.337C58.0545 66.091 56.7675 66.468 55.2855 66.468C53.7255 66.468 52.3995 66.156 51.3075 65.532C50.2155 64.908 49.3835 63.946 48.8115 62.646C48.2655 61.32 47.9925 59.617 47.9925 57.537V56.484H53.1405ZM74.9166 55.743C74.9166 53.637 75.3196 51.895 76.1256 50.517C76.9576 49.139 78.0106 48.112 79.2846 47.436C80.5846 46.76 81.9366 46.422 83.3406 46.422V51.414C82.1446 51.414 81.0136 51.557 79.9476 51.843C78.9076 52.129 78.0626 52.597 77.4126 53.247C76.7626 53.897 76.4376 54.729 76.4376 55.743H74.9166ZM71.2896 66V46.5H76.4376V66H71.2896ZM12.129 104.468C10.751 104.468 9.464 104.299 8.268 103.961C7.072 103.623 6.006 103.155 5.07 102.557C4.134 101.933 3.354 101.244 2.73 100.49C2.132 99.736 1.742 98.943 1.56 98.111L6.786 96.551C7.124 97.435 7.722 98.202 8.58 98.852C9.438 99.476 10.517 99.801 11.817 99.827C13.195 99.853 14.313 99.554 15.171 98.93C16.055 98.306 16.497 97.5 16.497 96.512C16.497 95.654 16.146 94.939 15.444 94.367C14.768 93.769 13.832 93.314 12.636 93.002L9.087 92.066C7.761 91.728 6.591 91.221 5.577 90.545C4.563 89.843 3.77 88.985 3.198 87.971C2.626 86.957 2.34 85.774 2.34 84.422C2.34 81.848 3.185 79.846 4.875 78.416C6.591 76.96 9.009 76.232 12.129 76.232C13.871 76.232 15.392 76.492 16.692 77.012C18.018 77.506 19.123 78.221 20.007 79.157C20.891 80.093 21.567 81.198 22.035 82.472L16.848 84.071C16.536 83.187 15.964 82.433 15.132 81.809C14.3 81.185 13.247 80.873 11.973 80.873C10.673 80.873 9.646 81.172 8.892 81.77C8.164 82.368 7.8 83.213 7.8 84.305C7.8 85.163 8.086 85.839 8.658 86.333C9.256 86.827 10.062 87.204 11.076 87.464L14.664 88.361C17.004 88.933 18.824 89.96 20.124 91.442C21.424 92.924 22.074 94.575 22.074 96.395C22.074 98.007 21.684 99.424 20.904 100.646C20.124 101.842 18.993 102.778 17.511 103.454C16.029 104.13 14.235 104.468 12.129 104.468ZM35.5065 104.468C33.5825 104.468 31.8795 104.039 30.3975 103.181C28.9155 102.297 27.7455 101.088 26.8875 99.554C26.0555 98.02 25.6395 96.252 25.6395 94.25C25.6395 92.248 26.0685 90.48 26.9265 88.946C27.8105 87.412 29.0065 86.216 30.5145 85.358C32.0485 84.474 33.8035 84.032 35.7795 84.032C37.4955 84.032 39.0685 84.487 40.4985 85.397C41.9545 86.281 43.1115 87.594 43.9695 89.336C44.8535 91.052 45.2955 93.145 45.2955 95.615H30.5145L30.9825 95.147C30.9825 96.109 31.2165 96.954 31.6845 97.682C32.1785 98.384 32.8025 98.93 33.5565 99.32C34.3365 99.684 35.1685 99.866 36.0525 99.866C37.1185 99.866 37.9895 99.645 38.6655 99.203C39.3415 98.735 39.8615 98.137 40.2255 97.409L44.8275 99.203C44.2815 100.295 43.5665 101.244 42.6825 102.05C41.8245 102.83 40.7975 103.428 39.6015 103.844C38.4055 104.26 37.0405 104.468 35.5065 104.468ZM31.2555 92.261L30.7875 91.793H40.1865L39.7575 92.261C39.7575 91.325 39.5365 90.584 39.0945 90.038C38.6525 89.466 38.1065 89.05 37.4565 88.79C36.8325 88.53 36.2215 88.4 35.6235 88.4C35.0255 88.4 34.3885 88.53 33.7125 88.79C33.0365 89.05 32.4515 89.466 31.9575 90.038C31.4895 90.584 31.2555 91.325 31.2555 92.261ZM60.8452 104L60.6892 100.061V94.133C60.6892 92.963 60.5592 91.962 60.2992 91.13C60.0652 90.298 59.6752 89.661 59.1292 89.219C58.6092 88.751 57.8942 88.517 56.9842 88.517C56.1522 88.517 55.3982 88.699 54.7222 89.063C54.0462 89.427 53.4742 89.986 53.0062 90.74L48.4822 89.18C48.8462 88.348 49.3792 87.542 50.0812 86.762C50.7832 85.956 51.6932 85.306 52.8112 84.812C53.9552 84.292 55.3462 84.032 56.9842 84.032C58.9602 84.032 60.5982 84.409 61.8982 85.163C63.2242 85.917 64.1992 86.983 64.8232 88.361C65.4732 89.713 65.7852 91.325 65.7592 93.197L65.6422 104H60.8452ZM55.3852 104.468C53.0452 104.468 51.2252 103.948 49.9252 102.908C48.6512 101.868 48.0142 100.399 48.0142 98.501C48.0142 96.421 48.7032 94.861 50.0812 93.821C51.4852 92.755 53.4482 92.222 55.9702 92.222H60.9232V96.044H57.7642C56.0742 96.044 54.9042 96.252 54.2542 96.668C53.6042 97.058 53.2792 97.617 53.2792 98.345C53.2792 98.917 53.5392 99.372 54.0592 99.71C54.5792 100.022 55.3072 100.178 56.2432 100.178C57.1012 100.178 57.8552 99.983 58.5052 99.593C59.1812 99.177 59.7142 98.657 60.1042 98.033C60.4942 97.383 60.6892 96.72 60.6892 96.044H61.9372C61.9372 98.696 61.4302 100.763 60.4162 102.245C59.4282 103.727 57.7512 104.468 55.3852 104.468ZM78.6761 104.468C76.5181 104.468 74.8801 103.935 73.7621 102.869C72.6701 101.803 72.1241 100.282 72.1241 98.306V78.416H77.2721V97.175C77.2721 98.007 77.4541 98.644 77.8181 99.086C78.1821 99.502 78.7151 99.71 79.4171 99.71C79.6771 99.71 79.9631 99.658 80.2751 99.554C80.5871 99.424 80.9121 99.242 81.2501 99.008L83.0441 102.869C82.4201 103.337 81.7181 103.714 80.9381 104C80.1841 104.312 79.4301 104.468 78.6761 104.468ZM68.9651 88.868V84.5H82.1471V88.868H68.9651Z" fill="#E2E8F0"/>
</svg>
