<svg width="134" height="126" viewBox="0 0 134 126" fill="none" xmlns="http://www.w3.org/2000/svg">
<path d="M33.5 99.75V102.375C33.5 104.562 32.6858 106.422 31.0573 107.953C29.4288 109.484 27.4514 110.25 25.125 110.25C22.7986 110.25 20.8212 109.484 19.1927 107.953C17.5642 106.422 16.75 104.562 16.75 102.375V64.8375C16.75 64.225 16.7965 63.6125 16.8896 63C16.9826 62.3875 17.1222 61.8187 17.3083 61.2937L27.7771 33.3375C28.5215 31.2375 29.8708 29.5312 31.825 28.2187C33.7792 26.9062 35.966 26.25 38.3854 26.25H95.6146C98.034 26.25 100.221 26.9062 102.175 28.2187C104.129 29.5312 105.478 31.2375 106.223 33.3375L116.692 61.2937C116.878 61.8187 117.017 62.3875 117.11 63C117.203 63.6125 117.25 64.225 117.25 64.8375V102.375C117.25 104.562 116.436 106.422 114.807 107.953C113.179 109.484 111.201 110.25 108.875 110.25C106.549 110.25 104.571 109.484 102.943 107.953C101.314 106.422 100.5 104.562 100.5 102.375V99.75H33.5ZM32.3833 52.5H101.617L95.7542 36.75H38.2458L32.3833 52.5ZM41.875 84C44.2014 84 46.1788 83.2344 47.8073 81.7031C49.4358 80.1719 50.25 78.3125 50.25 76.125C50.25 73.9375 49.4358 72.0781 47.8073 70.5469C46.1788 69.0156 44.2014 68.25 41.875 68.25C39.5486 68.25 37.5712 69.0156 35.9427 70.5469C34.3142 72.0781 33.5 73.9375 33.5 76.125C33.5 78.3125 34.3142 80.1719 35.9427 81.7031C37.5712 83.2344 39.5486 84 41.875 84ZM92.125 84C94.4514 84 96.4288 83.2344 98.0573 81.7031C99.6858 80.1719 100.5 78.3125 100.5 76.125C100.5 73.9375 99.6858 72.0781 98.0573 70.5469C96.4288 69.0156 94.4514 68.25 92.125 68.25C89.7986 68.25 87.8212 69.0156 86.1927 70.5469C84.5642 72.0781 83.75 73.9375 83.75 76.125C83.75 78.3125 84.5642 80.1719 86.1927 81.7031C87.8212 83.2344 89.7986 84 92.125 84Z" fill="black"/>
</svg>
