<svg width="43" height="43" viewBox="0 0 43 43" fill="none" xmlns="http://www.w3.org/2000/svg">
<path d="M5.12797 35.3435C4.35038 35.3435 3.69866 35.0705 3.17279 34.5246C2.64663 33.9786 2.38354 33.3183 2.38354 32.5437C2.38354 31.7694 2.64663 31.1201 3.17279 30.5961C3.69866 30.0722 4.35038 29.8103 5.12797 29.8103H17.9648C18.7424 29.8103 19.3941 30.0833 19.92 30.6292C20.4462 31.1752 20.7092 31.8355 20.7092 32.6101C20.7092 33.3844 20.4462 34.0337 19.92 34.5578C19.3941 35.0816 18.7424 35.3435 17.9648 35.3435H5.12797ZM5.12797 25.9593C4.35038 25.9593 3.69866 25.6863 3.17279 25.1404C2.64663 24.5945 2.38354 23.9342 2.38354 23.1595C2.38354 22.3852 2.64663 21.736 3.17279 21.2119C3.69866 20.6881 4.35038 20.4262 5.12797 20.4262H10.9709C11.7485 20.4262 12.4003 20.6991 12.9261 21.2451C13.4523 21.791 13.7154 22.4513 13.7154 23.2259C13.7154 24.0003 13.4523 24.6495 12.9261 25.1736C12.4003 25.6974 11.7485 25.9593 10.9709 25.9593H5.12797ZM5.12797 16.5751C4.35038 16.5751 3.69866 16.3022 3.17279 15.7562C2.64663 15.2103 2.38354 14.55 2.38354 13.7754C2.38354 13.001 2.64663 12.3518 3.17279 11.8277C3.69866 11.3039 4.35038 11.042 5.12797 11.042H10.9709C11.7485 11.042 12.4003 11.315 12.9261 11.8609C13.4523 12.4068 13.7154 13.0671 13.7154 13.8418C13.7154 14.6161 13.4523 15.2653 12.9261 15.7894C12.4003 16.3132 11.7485 16.5751 10.9709 16.5751H5.12797ZM26.021 28.7923C23.3651 28.7923 21.115 27.8437 19.2706 25.9465C17.4263 24.0493 16.5041 21.7549 16.5041 19.0633C16.5041 16.3717 17.4263 14.0742 19.2706 12.1708C21.115 10.2674 23.3578 9.31567 25.9989 9.31567C28.64 9.31567 30.8902 10.2652 32.7493 12.1641C34.6084 14.0631 35.538 16.3597 35.538 19.054C35.538 19.9198 35.4347 20.7781 35.2281 21.6289C35.0216 22.4796 34.6674 23.2591 34.1658 23.9674L39.1677 29.1464C39.6399 29.6185 39.8686 30.1718 39.8538 30.8063C39.8391 31.4408 39.5956 31.9941 39.1235 32.4662C38.6513 32.9384 38.0832 33.1745 37.4193 33.1745C36.7553 33.1745 36.1872 32.9236 35.7151 32.422L30.8016 27.3315C30.0934 27.8332 29.3335 28.2021 28.522 28.4381C27.7105 28.6742 26.8768 28.7923 26.021 28.7923ZM25.9989 23.9231C27.3121 23.9231 28.4261 23.4492 29.3409 22.5013C30.2557 21.5535 30.7131 20.4026 30.7131 19.0487C30.7131 17.6947 30.2569 16.5382 29.3444 15.5792C28.4323 14.6201 27.3245 14.1406 26.021 14.1406C24.6931 14.1406 23.5791 14.6174 22.679 15.5712C21.779 16.5253 21.3289 17.6835 21.3289 19.046C21.3289 20.4088 21.779 21.5623 22.679 22.5066C23.5791 23.4509 24.6857 23.9231 25.9989 23.9231Z" fill="#F3F4F6"/>
</svg>
