<svg width="39" height="36" viewBox="0 0 39 36" fill="none" xmlns="http://www.w3.org/2000/svg">
<path d="M29.6877 24.2328C28.4608 25.6998 27.2139 27.0995 25.947 28.432C24.6801 29.7644 23.6466 30.9197 22.8464 31.8976C22.473 32.191 22.0529 32.4111 21.5862 32.5578C21.1194 32.7045 20.646 32.7778 20.1659 32.7778C19.6858 32.7778 19.2124 32.7045 18.7456 32.5578C18.2789 32.4111 17.8588 32.191 17.4854 31.8976C15.5917 30.3573 13.9247 28.8782 12.4844 27.4601C11.0441 26.0421 9.84391 24.6546 8.88373 23.2977C7.92354 21.9407 7.2034 20.6021 6.72331 19.2819C6.24322 17.9616 6.00317 16.6292 6.00317 15.2845C6.00317 11.7393 7.33009 8.70764 9.98394 6.18938C12.6378 3.67112 15.8851 2.41199 19.7258 2.41199C20.2592 2.41199 20.7727 2.44255 21.2661 2.50367C21.7595 2.56479 22.2596 2.63203 22.7664 2.70538C23.4065 2.80317 23.9466 3.07211 24.3867 3.5122C24.8268 3.95228 25.0468 4.46571 25.0468 5.05249C25.0468 5.71262 24.7934 6.27495 24.2867 6.73948C23.7799 7.20402 23.1665 7.43628 22.4463 7.43628C22.2863 7.43628 21.9929 7.38738 21.5662 7.28959C21.2728 7.19179 20.9727 7.12456 20.666 7.08788C20.3593 7.05121 20.0459 7.03287 19.7258 7.03287C17.2987 7.03287 15.2449 7.83969 13.5646 9.45334C11.8843 11.067 11.0441 13.0107 11.0441 15.2845C11.0441 16.8247 11.7576 18.6218 13.1845 20.6755C14.6115 22.7292 16.7919 25.0152 19.7258 27.5335C20.7927 26.6533 21.8395 25.6876 22.8664 24.6362C23.8933 23.5849 24.7934 22.5458 25.5669 21.519C25.8336 21.1522 26.167 20.8405 26.5671 20.5838C26.9672 20.3271 27.4073 20.1987 27.8874 20.1987C28.5808 20.1987 29.1809 20.431 29.6877 20.8955C30.1945 21.3601 30.4479 21.9102 30.4479 22.5458C30.4479 22.8637 30.3745 23.1571 30.2278 23.426C30.0811 23.695 29.9011 23.9639 29.6877 24.2328ZM29.8877 14.3676C27.514 14.2454 25.2602 14.5571 23.1265 15.3028C20.9927 16.0485 18.819 17.5093 16.6052 19.6853C17.272 16.8247 18.8256 14.4654 21.2661 12.6073C23.7066 10.7491 26.5271 9.74672 29.7277 9.60003L27.9674 7.98639C27.594 7.6441 27.4139 7.23458 27.4273 6.75782C27.4406 6.28106 27.634 5.87154 28.0074 5.52925C28.3808 5.18696 28.8275 5.01582 29.3476 5.01582C29.8677 5.01582 30.3145 5.18696 30.6879 5.52925L36.0089 10.4069C36.489 10.8714 36.7357 11.4154 36.7491 12.0388C36.7624 12.6623 36.5157 13.2063 36.0089 13.6708L30.6479 18.5851C30.2745 18.9274 29.8344 19.0924 29.3276 19.0802C28.8209 19.068 28.3808 18.8907 28.0074 18.5484C27.634 18.2061 27.4473 17.7966 27.4473 17.3198C27.4473 16.8431 27.634 16.4336 28.0074 16.0913L29.8877 14.3676Z" fill="black"/>
</svg>
