<svg width="234" height="183" viewBox="0 0 234 183" fill="none" xmlns="http://www.w3.org/2000/svg">
  <!-- background gradient rectangle (from dreptunghi-fade.svg) -->
  <rect width="234" height="183" fill="url(#bgGradient)" />

  <!-- chair icon (from scaun-my-bookings.svg) centered over the rectangle -->
  <!-- chair original size: 118x118; place centered in 234x183 canvas -->
  <!-- compute translate: (234/2 - 118/2, 183/2 - 118/2) = (58, 32.5) -->
  <g transform="translate(58 32.5)">
    <path d="M68.6283 99.2441H40.0096C36.9138 99.2441 34.2756 98.1538 32.095 95.9733C29.9145 93.7936 28.8242 91.1554 28.8242 88.0587V39.7746C28.8242 38.2561 29.3446 36.9835 30.3853 35.9568C31.4251 34.93 32.7006 34.4166 34.2117 34.4166C35.7219 34.4166 36.9924 34.93 38.0233 35.9568C39.0533 36.9835 39.5684 38.2561 39.5684 39.7746V88.5H68.6283C70.1459 88.5 71.4181 89.0133 72.4449 90.0401C73.4716 91.0669 73.985 92.3395 73.985 93.8579C73.985 95.3681 73.4716 96.6436 72.4449 97.6843C71.4181 98.7242 70.1459 99.2441 68.6283 99.2441ZM57.3212 29.5C54.4892 29.5 52.0665 28.4941 50.0532 26.4824C48.039 24.4698 47.0319 22.0508 47.0319 19.2254C47.0319 16.3917 48.0377 13.9662 50.0495 11.9487C52.062 9.93122 54.481 8.92249 57.3065 8.92249C60.1475 8.92249 62.5702 9.92999 64.5745 11.945C66.5781 13.96 67.5798 16.3827 67.5798 19.2131C67.5798 22.0434 66.5781 24.4653 64.5745 26.4787C62.5702 28.4929 60.1524 29.5 57.3212 29.5ZM78.9017 103.015V83.5833H54.3184C51.6142 83.5833 49.2993 82.6205 47.3736 80.6948C45.4479 78.7691 44.485 76.4541 44.485 73.75V47.2368C44.485 43.6583 45.7273 40.6272 48.2119 38.1435C50.6956 35.6589 53.7271 34.4166 57.3065 34.4166C60.885 34.4166 63.9165 35.6589 66.4011 38.1435C68.8848 40.6272 70.1267 43.6583 70.1267 47.2368V68.392H79.343C82.0471 68.392 84.3621 69.3549 86.2878 71.2806C88.2135 73.2063 89.1763 75.5212 89.1763 78.2254V103.045C89.1763 104.496 88.6855 105.712 87.7038 106.694C86.7221 107.676 85.5052 108.167 84.0531 108.167C82.6019 108.167 81.3805 107.673 80.389 106.685C79.3975 105.698 78.9017 104.475 78.9017 103.015Z" fill="#F3F4F6"/>
  </g>

  <defs>
    <linearGradient id="bgGradient" x1="0" y1="183" x2="234" y2="183" gradientUnits="userSpaceOnUse">
      <stop stop-color="#1F2937"/>
      <stop offset="1" stop-color="#4B5563"/>
    </linearGradient>
  </defs>
</svg>