<svg width="27" height="44" viewBox="0 0 27 44" fill="none" xmlns="http://www.w3.org/2000/svg">
<path d="M17.3591 39.2795H5.16521C3.84611 39.2795 2.72202 38.8149 1.79293 37.8858C0.863837 36.9571 0.399292 35.833 0.399292 34.5136V13.9405C0.399292 13.2935 0.621003 12.7513 1.06442 12.3138C1.5075 11.8763 2.05095 11.6576 2.69479 11.6576C3.33827 11.6576 3.87963 11.8763 4.31886 12.3138C4.75775 12.7513 4.97719 13.2935 4.97719 13.9405V34.7016H17.3591C18.0058 34.7016 18.5478 34.9203 18.9853 35.3578C19.4228 35.7953 19.6415 36.3375 19.6415 36.9845C19.6415 37.628 19.4228 38.1714 18.9853 38.6149C18.5478 39.0579 18.0058 39.2795 17.3591 39.2795ZM12.5414 9.56269C11.3347 9.56269 10.3024 9.13411 9.44458 8.27694C8.58636 7.41943 8.15726 6.38873 8.15726 5.18486C8.15726 3.97749 8.58584 2.94401 9.44301 2.0844C10.3005 1.22479 11.3312 0.794983 12.5351 0.794983C13.7456 0.794983 14.7779 1.22426 15.6319 2.08283C16.4856 2.94139 16.9124 3.97365 16.9124 5.17962C16.9124 6.38559 16.4856 7.41751 15.6319 8.27537C14.7779 9.13358 13.7477 9.56269 12.5414 9.56269ZM21.7364 40.8863V32.6067H11.2619C10.1097 32.6067 9.12336 32.1964 8.30285 31.3759C7.48235 30.5554 7.0721 29.5691 7.0721 28.4169V17.1201C7.0721 15.5953 7.60141 14.3038 8.66004 13.2455C9.71831 12.1869 11.01 11.6576 12.5351 11.6576C14.0598 11.6576 15.3515 12.1869 16.4101 13.2455C17.4684 14.3038 17.9976 15.5953 17.9976 17.1201V26.1339H21.9245C23.0767 26.1339 24.063 26.5442 24.8835 27.3647C25.704 28.1852 26.1143 29.1715 26.1143 30.3237V40.8988C26.1143 41.5172 25.9051 42.0355 25.4869 42.4538C25.0686 42.8721 24.5501 43.0812 23.9314 43.0812C23.313 43.0812 22.7926 42.8708 22.3702 42.4501C21.9477 42.0294 21.7364 41.5081 21.7364 40.8863Z" fill="#EF4444"/>
</svg>
