<svg width="26" height="44" viewBox="0 0 26 44" fill="none" xmlns="http://www.w3.org/2000/svg">
<path d="M17.2413 39.2862H5.04741C3.72832 39.2862 2.60422 38.8217 1.67513 37.8926C0.746039 36.9639 0.281494 35.8398 0.281494 34.5203V13.9473C0.281494 13.3003 0.503205 12.7581 0.946627 12.3206C1.3897 11.8831 1.93315 11.6644 2.57699 11.6644C3.22047 11.6644 3.76183 11.8831 4.20107 12.3206C4.63995 12.7581 4.85939 13.3003 4.85939 13.9473V34.7084H17.2413C17.888 34.7084 18.43 34.9271 18.8675 35.3646C19.305 35.8021 19.5237 36.3443 19.5237 36.9913C19.5237 37.6348 19.305 38.1782 18.8675 38.6216C18.43 39.0647 17.888 39.2862 17.2413 39.2862ZM12.4236 9.56947C11.2169 9.56947 10.1846 9.14088 9.32678 8.28372C8.46857 7.4262 8.03946 6.39551 8.03946 5.19163C8.03946 3.98427 8.46804 2.95078 9.32521 2.09117C10.1827 1.23156 11.2134 0.801758 12.4173 0.801758C13.6278 0.801758 14.6601 1.23104 15.5141 2.0896C16.3678 2.94816 16.7946 3.98043 16.7946 5.1864C16.7946 6.39237 16.3678 7.42428 15.5141 8.28215C14.6601 9.14036 13.6299 9.56947 12.4236 9.56947ZM21.6186 40.893V32.6134H11.1441C9.99191 32.6134 9.00556 32.2032 8.18506 31.3827C7.36455 30.5622 6.9543 29.5758 6.9543 28.4236V17.1268C6.9543 15.6021 7.48361 14.3106 8.54224 13.2523C9.60052 12.1937 10.8922 11.6644 12.4173 11.6644C13.942 11.6644 15.2337 12.1937 16.2923 13.2523C17.3506 14.3106 17.8798 15.6021 17.8798 17.1268V26.1407H21.8067C22.9589 26.1407 23.9452 26.551 24.7657 27.3715C25.5862 28.192 25.9965 29.1783 25.9965 30.3305V40.9056C25.9965 41.524 25.7873 42.0423 25.3691 42.4606C24.9508 42.8788 24.4323 43.088 23.8136 43.088C23.1952 43.088 22.6748 42.8776 22.2524 42.4569C21.8299 42.0362 21.6186 41.5149 21.6186 40.893Z" fill="#16A34A"/>
</svg>
