<svg width="8" height="22" viewBox="0 0 8 22" fill="none" xmlns="http://www.w3.org/2000/svg">
<path d="M4.00306 4.68516C3.43552 4.68516 2.95316 4.48456 2.55596 4.08336C2.15851 3.68216 1.95978 3.19779 1.95978 2.63025C1.95978 2.06272 2.16038 1.58023 2.56158 1.18278C2.96279 0.785575 3.44728 0.586975 4.01507 0.586975C4.5826 0.586975 5.06497 0.787575 5.46217 1.18878C5.85962 1.58998 6.05835 2.07435 6.05835 2.64188C6.05835 3.20942 5.85774 3.69191 5.45654 4.08936C5.05534 4.48656 4.57085 4.68516 4.00306 4.68516ZM1.98867 20.6738V14.9597H1.70015C1.35673 14.9597 1.06883 14.8435 0.836466 14.6112C0.604099 14.3788 0.487915 14.0909 0.487915 13.7475V8.32149C0.487915 7.76596 0.685765 7.29035 1.08146 6.89465C1.47716 6.4992 1.95278 6.30148 2.50831 6.30148H5.50982C6.06535 6.30148 6.54096 6.4992 6.93666 6.89465C7.33236 7.29035 7.53021 7.76596 7.53021 8.32149V13.7475C7.53021 14.0909 7.41403 14.3788 7.18166 14.6112C6.94929 14.8435 6.6614 14.9597 6.31798 14.9597H6.02945V20.6738C6.02945 21.0173 5.91327 21.3052 5.68091 21.5375C5.44854 21.7699 5.16064 21.8861 4.81722 21.8861H3.20091C2.85748 21.8861 2.56959 21.7699 2.33722 21.5375C2.10485 21.3052 1.98867 21.0173 1.98867 20.6738Z" fill="#4B5563"/>
</svg>
