<svg width="97" height="92" viewBox="0 0 97 92" fill="none" xmlns="http://www.w3.org/2000/svg">
<path d="M11.2794 80.8901C10.4259 80.8901 9.65496 80.6891 8.96653 80.2873C8.2781 79.8854 7.74292 79.3558 7.36098 78.6984C6.97568 78.0467 6.76618 77.3388 6.7325 76.5747C6.69882 75.8106 6.90832 75.065 7.36098 74.3379L44.4807 13.4167C44.9327 12.6864 45.5237 12.1424 46.2539 11.7847C46.9841 11.4269 47.7335 11.248 48.5021 11.248C49.2707 11.248 50.0194 11.4269 50.7483 11.7847C51.4771 12.1424 52.0675 12.6864 52.5195 13.4167L89.6392 74.3379C90.0919 75.065 90.3014 75.8106 90.2677 76.5747C90.234 77.3388 90.0245 78.0467 89.6392 78.6984C89.2539 79.3494 88.718 79.8774 88.0316 80.2825C87.3446 80.6875 86.5743 80.8901 85.7208 80.8901H11.2794ZM48.5001 68.931C49.6614 68.931 50.6456 68.5483 51.4525 67.7829C52.2595 67.0182 52.663 66.0851 52.663 64.9837C52.663 63.8822 52.2595 62.9526 51.4525 62.1949C50.6456 61.4372 49.6614 61.0583 48.5001 61.0583C47.3388 61.0583 46.3546 61.4372 45.5477 62.1949C44.7407 62.9526 44.3372 63.8822 44.3372 64.9837C44.3372 66.0851 44.7407 67.0182 45.5477 67.7829C46.3546 68.5483 47.3388 68.931 48.5001 68.931ZM48.5001 57.5C49.6452 57.5 50.6051 57.1327 51.3798 56.3979C52.1544 55.6632 52.5418 54.7528 52.5418 53.6667V42.4187C52.5418 41.3326 52.1544 40.4222 51.3798 39.6875C50.6051 38.9528 49.6452 38.5854 48.5001 38.5854C47.355 38.5854 46.3951 38.9528 45.6204 39.6875C44.8458 40.4222 44.4584 41.3326 44.4584 42.4187V53.6667C44.4584 54.7528 44.8458 55.6632 45.6204 56.3979C46.3951 57.1327 47.355 57.5 48.5001 57.5Z" fill="#F59E0B"/>
</svg>
